<?xml version="1.0" encoding="utf-8"?>
<!-- Generator: Adobe Illustrator 21.0.0, SVG Export Plug-In . SVG Version: 6.00 Build 0)  -->
<svg version="1.0" id="Layer_1" xmlns="http://www.w3.org/2000/svg" xmlns:xlink="http://www.w3.org/1999/xlink" x="0px" y="0px"
	 viewBox="0 0 40 40" style="enable-background:new 0 0 40 40;" xml:space="preserve">
<style type="text/css">
	.st0{fill:#FFFFFF;}
</style>
<path class="st0" d="M20,0.1C9,0.1,0.1,9,0.1,20S9,39.9,20,39.9S39.9,31,39.9,20S31,0.1,20,0.1z M14.7,29.7h-4V16.8h4V29.7z
	 M12.7,15c-1.3,0-2.3-1-2.3-2.3s1-2.3,2.3-2.3s2.3,1,2.3,2.3S14,15,12.7,15z M29.8,29.7h-4v-6.3c0-1.5,0-3.4-2.1-3.4
	c-2.1,0-2.4,1.6-2.4,3.3v6.4h-4V16.8h3.9v1.8h0.1c0.5-1,1.8-2.1,3.8-2.1c4.1,0,4.8,2.7,4.8,6.2L29.8,29.7z"/>
</svg>
